<?xml version="1.0" encoding="utf-8"?>
<!-- Generator: Adobe Illustrator 22.1.0, SVG Export Plug-In . SVG Version: 6.00 Build 0)  -->
<svg version="1.1" id="Layer_1" xmlns="http://www.w3.org/2000/svg" xmlns:xlink="http://www.w3.org/1999/xlink" x="0px" y="0px"
	 viewBox="0 0 100 125" style="enable-background:new 0 0 100 125;" xml:space="preserve">
<style type="text/css">
	.st0{fill:#D2D2D2;}
</style>
<title>vacation_set_01</title>
<path class="st0" d="M58.9,84.6l12.2-8.1v2.7c0,0.5,0.4,1,1,1s1-0.4,1-1l0,0v-4l0,0l5.7-3.8v2.3c0,0.5,0.4,1,1,1s1-0.4,1-1l0,0V70
	l9.7-6.4c0.2-0.2,0.4-0.4,0.4-0.7l1.2-9.9c0-0.3-0.1-0.6-0.3-0.8l-0.1-0.1c-0.3-0.2-0.7-0.3-1-0.1L60.5,64.8
	c-0.5,0.2-0.8,0.7-0.6,1.3c0.2,0.5,0.7,0.8,1.3,0.6c0.1,0,0.1,0,0.2-0.1L90,54.5l-1,7.7L58.7,82.3c-0.9-14.1-2.7-34.4-3.5-42.5
	l10-6.3c0.3-0.2,0.4-0.5,0.5-0.8l0.3-6.2c0-0.3-0.1-0.6-0.3-0.8l-0.1-0.1c-0.3-0.2-0.6-0.2-0.9-0.1l-8.9,3.3
	c-0.5,0.1-0.9,0.7-0.7,1.2c0.1,0.5,0.7,0.9,1.2,0.7c0.1,0,0.2-0.1,0.2-0.1l7.5-2.8L63.8,32L55,37.6l-0.1-0.8
	c-0.4-3.2-1.7-6.6-3.3-8.2c-0.4-0.5-1-0.8-1.6-0.8l0,0c-2.2,0-4.4,4.7-4.9,9v0.8l-8.7-5.5l-0.2-4.2l7.4,2.8c0.5,0.2,1.1-0.1,1.3-0.6
	c0.1-0.4,0-0.8-0.2-1c-0.1-0.1-0.2-0.2-0.4-0.2l-8.9-3.3c-0.5-0.2-1.1,0.1-1.3,0.6c0,0.1-0.1,0.2,0,0.4l0.3,6.2
	c0,0.3,0.2,0.6,0.5,0.8l10,6.3c-0.8,8-2.6,28.4-3.5,42.5L11.1,62.2l-0.9-7.7l28.6,12.1c0.5,0.2,1.1-0.1,1.3-0.6
	c0.1-0.4,0.1-0.8-0.2-1c-0.1-0.1-0.2-0.2-0.3-0.2L9.3,52c-0.3-0.1-0.7-0.1-1,0.1C8.1,52.3,7.9,52.7,8,53l1.2,9.9
	c0,0.3,0.2,0.5,0.4,0.7l9.7,6.4v3.7c0,0.6,0.4,1,1,1l0,0c0.5,0,1-0.4,1-1v-2.3l5.7,3.8l0,0v4.1c0,0.6,0.4,1,1,1l0,0c0.5,0,1-0.4,1-1
	v-2.7l12.2,8.1c-0.2,4-0.4,7.5-0.4,9.6c0,10.8,6.7,15.7,9.3,15.7s9.3-4.9,9.3-15.7C59.3,92.1,59.1,88.7,58.9,84.6z M50,107.9
	c-1.2-0.3-2.2-1-3-1.9c-2-2-4.2-5.8-4.2-11.8c0-10.9,3.7-52.5,4.3-57.2c0.5-4.1,2.2-6.8,3-7.2c0.7,0.4,2.4,3.2,3,7.2
	c0.6,4.7,4.3,46.3,4.3,57.2C57.3,104.2,51.2,107.9,50,107.9z"/>
</svg>
