<?xml version="1.0" encoding="utf-8"?>
<!-- Generator: Adobe Illustrator 22.1.0, SVG Export Plug-In . SVG Version: 6.00 Build 0)  -->
<svg version="1.1" id="Layer_1" xmlns="http://www.w3.org/2000/svg" xmlns:xlink="http://www.w3.org/1999/xlink" x="0px" y="0px"
	 viewBox="0 0 100 125" style="enable-background:new 0 0 100 125;" xml:space="preserve">
<style type="text/css">
	.st0{fill:#DCDCDC;}
</style>
<title>vacation_set_06</title>
<path class="st0" d="M24.1,94.3h50.1c0.6,0,1-0.4,1-1V25c0-0.6-0.4-1-1-1H24.1c-0.6,0-1,0.4-1,1v68.3C23.1,93.9,23.6,94.3,24.1,94.3
	z M25.1,26h48.1v66.3H25.1V26z"/>
<path class="st0" d="M27.8,96c-0.6,0-1,0.4-1,1s0.4,1,1,1h47.3c2.1,0,3.8-1.7,3.8-3.8V28.7c0-0.6-0.4-1-1-1s-1,0.4-1,1v65.6
	c0,1-0.8,1.8-1.8,1.8c0,0,0,0,0,0H27.8z"/>
<path class="st0" d="M49.5,34.1c0,0-0.1,0-0.1,0h-0.2c-8.8,0-16,7.2-16,16s7.2,16,16,16h0.3h0.2c8.8,0,16-7.2,15.9-16.1
	C65.5,41.2,58.3,34.1,49.5,34.1z M58.6,49.1c0-2.8-0.7-5.6-1.8-8.1c0.7-0.3,1.3-0.7,1.9-1.1c2.6,2.4,4.2,5.7,4.4,9.2L58.6,49.1z
	 M50.2,36.5c1.5,0.8,2.8,2,3.7,3.5c-1.2,0.3-2.5,0.5-3.7,0.6V36.5z M54.1,37c1.1,0.4,2.1,0.9,3,1.6c-0.4,0.3-0.8,0.5-1.2,0.7
	C55.3,38.5,54.7,37.7,54.1,37L54.1,37z M42.7,39.4c-0.5-0.2-1-0.5-1.5-0.8c1.1-0.7,2.3-1.3,3.5-1.8C44,37.6,43.3,38.5,42.7,39.4z
	 M48.2,36.7v3.8c-1.2-0.1-2.3-0.2-3.5-0.5C45.6,38.7,46.8,37.6,48.2,36.7z M48.2,42.6v6.6H42c0-2.5,0.6-5,1.6-7.3
	C45.1,42.3,46.6,42.5,48.2,42.6z M48.2,51.1v6.6c-1.5,0-3.1,0.3-4.5,0.7c-1-2.3-1.6-4.7-1.6-7.2H48.2z M48.2,59.7v3.8
	c-1.4-0.9-2.6-2-3.5-3.4C45.8,59.9,47,59.7,48.2,59.7z M44.8,63.4c-1.3-0.4-2.5-1-3.6-1.8c0.5-0.3,1-0.6,1.5-0.8
	C43.3,61.8,44,62.6,44.8,63.4z M50.2,63.7v-4c1.3,0.1,2.5,0.3,3.7,0.6C52.9,61.7,51.6,62.9,50.2,63.7z M55.8,61
	c0.4,0.2,0.8,0.4,1.2,0.7c-0.9,0.6-1.9,1.1-2.9,1.5C54.7,62.6,55.3,61.8,55.8,61z M50.2,57.7v-6.6h6.5c0,2.6-0.6,5.1-1.7,7.4
	C53.4,58,51.8,57.8,50.2,57.7z M50.2,49.1v-6.6c1.6-0.1,3.2-0.3,4.8-0.8c1.1,2.3,1.6,4.8,1.7,7.4H50.2z M39.6,39.9
	c0.7,0.5,1.4,0.9,2.1,1.2c-1.1,2.5-1.7,5.2-1.8,8h-4.8C35.5,45.6,37,42.3,39.6,39.9z M35.2,51.1H40c0,2.7,0.6,5.4,1.7,7.9
	c-0.8,0.3-1.5,0.7-2.2,1.2C37,57.9,35.5,54.6,35.2,51.1z M58.6,60.4c-0.6-0.4-1.2-0.8-1.8-1.1c1.2-2.6,1.8-5.4,1.8-8.2h4.5
	C62.9,54.7,61.2,58,58.6,60.4z"/>
<path class="st0" d="M55,83.3H43.3c-0.6,0-1,0.4-1,1s0.4,1,1,1H55c0.6,0,1-0.4,1-1S55.6,83.3,55,83.3z"/>
</svg>
