<?xml version="1.0" encoding="UTF-8" standalone="no"?>
<svg width="96px" height="30px" viewBox="0 0 96 30" version="1.1" xmlns="http://www.w3.org/2000/svg" xmlns:xlink="http://www.w3.org/1999/xlink">
    <!-- Generator: Sketch 3.8.2 (29753) - http://www.bohemiancoding.com/sketch -->
    <desc>Created with Sketch.</desc>
    <defs>
        <polygon id="path-1" points="0.0148453608 0.0625308947 0.0148453608 22.2844785 16.4986392 22.2844785 16.4986392 0.0625308947"></polygon>
        <polygon id="path-3" points="0.228618557 23.9594661 28.1250309 23.9594661 28.1250309 0.204399407 0.228618557 0.204399407 0.228618557 23.9594661"></polygon>
    </defs>
    <g id="Decks" stroke="none" stroke-width="1" fill="none" fill-rule="evenodd">
        <g id="Sherpa-logo">
            <g id="Navigation">
                <g id="Sherpa-logo">
                    <g>
                        <g id="Group-3" transform="translate(0.000000, 0.741473)">
                            <mask id="mask-2" fill="white">
                                <use xlink:href="#path-1"></use>
                            </mask>
                            <g id="Clip-2"></g>
                            <path d="M1.87249485,15.5113693 C3.3577732,16.4468611 6.16676289,17.4787444 8.00709278,17.4787444 C9.20164948,17.4787444 10.2348866,17.0916955 10.2348866,15.6082551 C10.2348866,14.2857143 8.84659794,13.8344043 6.97385567,13.2859614 C4.22969072,12.4476026 0.807092784,11.1250618 0.807092784,6.80326248 C0.807092784,2.48146317 4.1651134,0.0625308947 8.62070103,0.0625308947 C11.6877526,0.0625308947 14.593732,1.41720217 16.4986392,3.25556105 L13.6250722,6.90014829 C11.9138969,5.64211567 10.105732,4.70687098 8.62070103,4.70687098 C7.58746392,4.70687098 6.58663918,5.19055858 6.58663918,6.38408304 C6.58663918,7.73850717 8.0716701,8.22244192 10.073567,8.86752348 C13.0117113,9.80276817 16.1757526,11.0929313 16.1757526,15.4147306 C16.1757526,19.8976767 12.7534021,22.2844785 7.97492784,22.2844785 C4.74630928,22.2844785 1.38828866,20.9943154 0,20.0590707 L1.87249485,15.5113693" id="Fill-1" fill="#FFFFFF" mask="url(#mask-2)"></path>
                        </g>
                        <path d="M18.6625979,22.6389026 L18.6625979,0.223430549 L24.054433,0.223430549 L24.054433,7.02867029 C24.9906804,6.19006426 26.2498144,5.64186851 27.7350928,5.64186851 C31.1252784,5.64186851 32.9656082,7.54473554 32.9656082,11.4473554 L32.9656082,22.6389026 L27.5735258,22.6389026 L27.5735258,12.1569451 C27.5735258,10.7056352 27.2830515,9.77014335 26.0884948,9.77014335 C24.7647835,9.77014335 24.054433,10.7698962 24.054433,12.0600593 L24.054433,22.6389026 L18.6625979,22.6389026" id="Fill-4" fill="#FFFFFF"></path>
                        <path d="M43.2658144,9.41547207 C41.6513814,9.41547207 40.5859794,10.9957983 40.4892371,13.2212061 C42.2325773,13.1243203 44.5249485,12.3180919 44.5249485,10.7377657 C44.5249485,9.93153732 44.0407423,9.41547207 43.2658144,9.41547207 L43.2658144,9.41547207 Z M49.2066804,10.6732575 C49.2066804,15.3499753 43.9115876,16.28522 40.7475464,16.4787444 C40.8764536,17.9300544 41.974268,19.1233317 43.9437526,19.1233317 C45.4936082,19.1233317 46.9140619,18.4461196 47.947299,17.7686604 L49.368,21.316609 C49.2066804,21.4777558 46.7851546,23.1549679 43.1690722,23.1549679 C37.4865155,23.1549679 35.2584742,19.7362827 35.2584742,14.83391 C35.2584742,10.1571923 38.035299,5.64186851 43.5562887,5.64186851 C46.9464742,5.64186851 49.2066804,7.28670292 49.2066804,10.6732575 L49.2066804,10.6732575 Z" id="Fill-5" fill="#FFFFFF"></path>
                        <g id="Group-9" transform="translate(50.721649, 5.437469)">
                            <mask id="mask-4" fill="white">
                                <use xlink:href="#path-3"></use>
                            </mask>
                            <g id="Clip-7"></g>
                            <path d="M6.0403299,17.2014335 L0.648494845,17.2014335 L0.648494845,3.8487395 L0.228618557,0.688087 L4.61987629,0.688087 L5.03950515,2.97800297 C5.91117526,0.946119624 7.52560825,0.204399407 8.91389691,0.204399407 C9.72098969,0.204399407 10.7542268,0.397923875 11.5934845,0.817103312 L10.7220619,5.30029659 C10.0438763,4.94537815 9.23678351,4.75210084 8.39727835,4.75210084 C7.00898969,4.75210084 6.07274227,5.62283737 6.0403299,7.10652496 L6.0403299,17.2014335" id="Fill-6" fill="#FFFFFF" mask="url(#mask-4)"></path>
                            <path d="M19.7950515,4.23603559 C19.44,4.23603559 18.9233814,4.30054375 18.5035052,4.42956006 L18.5035052,13.2343055 C19.0525361,13.5247158 19.5691546,13.6534849 20.0209485,13.6534849 C22.1844124,13.6534849 22.7010309,11.1057835 22.7010309,9.07390015 C22.7010309,6.94513099 22.3778969,4.23603559 19.7950515,4.23603559 L19.7950515,4.23603559 Z M18.5035052,23.9742956 L13.0792577,23.9742956 L13.0792577,1.43005437 C15.7269278,0.526940188 18.6004948,0.204399407 20.2795052,0.204399407 C25.4776082,0.204399407 28.1250309,3.13939694 28.1250309,8.84799802 C28.1250309,14.5889768 25.3484536,17.7174988 20.8926186,17.7174988 C20.0533608,17.7174988 19.1171134,17.5239743 18.5035052,17.2659417 L18.5035052,23.9742956 L18.5035052,23.9742956 Z" id="Fill-8" fill="#FFFFFF" mask="url(#mask-4)"></path>
                        </g>
                        <path d="M90.1155464,9.6735047 C89.7602474,9.54424123 89.2114639,9.44760257 88.630268,9.44760257 C86.5313814,9.44760257 85.8212784,11.9634207 85.8212784,14.7370242 C85.8212784,17.2204647 86.2733196,19.2847257 88.1458144,19.2847257 C89.4051959,19.2847257 90.1155464,18.3816115 90.1155464,17.4463668 L90.1155464,9.6735047 L90.1155464,9.6735047 Z M95.4749691,19.1557093 L95.8300206,22.6389026 L91.2452784,22.6389026 L91.0193814,21.1230845 L90.8256495,21.0907069 C89.8569897,22.6067721 88.3395464,23.1225902 86.6607835,23.1225902 C81.7207423,23.1225902 80.4616082,19.1557093 80.4616082,15.1240732 C80.4616082,9.44760257 83.3351753,5.64186851 89.2114639,5.64186851 C90.3736082,5.64186851 92.8599588,5.93203164 95.4749691,6.93203164 L95.4749691,19.1557093 L95.4749691,19.1557093 Z" id="Fill-10" fill="#FFFFFF"></path>
                    </g>
                </g>
            </g>
        </g>
    </g>
</svg>